<svg xmlns="http://www.w3.org/2000/svg" enable-background="new 0 0 512 512" viewBox="0 0 512 512" id="event"><linearGradient id="a" x1="51.99" x2="396.843" y1="70.99" y2="415.843" gradientUnits="userSpaceOnUse"><stop offset="0" stop-color="#fff"></stop><stop offset="1" stop-color="#ebeadf"></stop></linearGradient><polygon fill="url(#a)" fill-rule="evenodd" points="432 43 80 43 80 507 305.7 507 432 380.7" clip-rule="evenodd"></polygon><linearGradient id="b" x1="146.735" x2="365.245" y1="-23.755" y2="194.755" gradientUnits="userSpaceOnUse"><stop offset="0" stop-color="#e67368"></stop><stop offset="1" stop-color="#db3328"></stop></linearGradient><rect width="352" height="85" x="80" y="43" fill="url(#b)"></rect><linearGradient id="c" x1="135.581" x2="187.473" y1="12.636" y2="64.527" gradientUnits="userSpaceOnUse"><stop offset="0" stop-color="#ebeadf"></stop><stop offset="1" stop-color="#747e6c"></stop></linearGradient><path fill="url(#c)" d="M166,86c-24,0-43-19.3-43-43s19.3-43,43-43s43,19.3,43,43h-10c0-18.2-14.8-33-33-33
				s-33,14.8-33,33s15,33,33,33V86z"></path><linearGradient id="d" x1="225.581" x2="277.473" y1="12.636" y2="64.527" gradientUnits="userSpaceOnUse"><stop offset="0" stop-color="#ebeadf"></stop><stop offset="1" stop-color="#747e6c"></stop></linearGradient><path fill="url(#d)" d="M256,86c-24,0-43-19.3-43-43s19.3-43,43-43s43,19.3,43,43h-10c0-18.2-14.8-33-33-33
				s-33,14.8-33,33s15,33,33,33V86z"></path><linearGradient id="e" x1="315.581" x2="367.473" y1="12.636" y2="64.527" gradientUnits="userSpaceOnUse"><stop offset="0" stop-color="#ebeadf"></stop><stop offset="1" stop-color="#747e6c"></stop></linearGradient><path fill="url(#e)" d="M346,86c-24,0-43-19.3-43-43s19.3-43,43-43s43,19.3,43,43h-10c0-18.2-14.8-33-33-33
				s-33,14.8-33,33s15,33,33,33V86z"></path><linearGradient id="f" x1="128" x2="183" y1="189" y2="244" gradientUnits="userSpaceOnUse"><stop offset="0" stop-color="#4c63ae"></stop><stop offset="1" stop-color="#1f3f77"></stop></linearGradient><rect width="55" height="55" x="128" y="189" fill="url(#f)" fill-rule="evenodd" clip-rule="evenodd"></rect><linearGradient id="g" x1="228.5" x2="283.5" y1="189" y2="244" gradientUnits="userSpaceOnUse"><stop offset="0" stop-color="#4c63ae"></stop><stop offset="1" stop-color="#1f3f77"></stop></linearGradient><rect width="55" height="55" x="228.5" y="189" fill="url(#g)" fill-rule="evenodd" clip-rule="evenodd"></rect><linearGradient id="h" x1="329" x2="384" y1="189" y2="244" gradientUnits="userSpaceOnUse"><stop offset="0" stop-color="#4c63ae"></stop><stop offset="1" stop-color="#1f3f77"></stop></linearGradient><rect width="55" height="55" x="329" y="189" fill="url(#h)" fill-rule="evenodd" clip-rule="evenodd"></rect><linearGradient id="i" x1="128" x2="183" y1="290" y2="345" gradientUnits="userSpaceOnUse"><stop offset="0" stop-color="#68a1d6"></stop><stop offset="1" stop-color="#3179af"></stop></linearGradient><rect width="55" height="55" x="128" y="290" fill="url(#i)" fill-rule="evenodd" clip-rule="evenodd"></rect><linearGradient id="j" x1="228.5" x2="283.5" y1="290" y2="345" gradientUnits="userSpaceOnUse"><stop offset="0" stop-color="#68a1d6"></stop><stop offset="1" stop-color="#3179af"></stop></linearGradient><rect width="55" height="55" x="228.5" y="290" fill="url(#j)" fill-rule="evenodd" clip-rule="evenodd"></rect><linearGradient id="k" x1="329" x2="384" y1="290" y2="345" gradientUnits="userSpaceOnUse"><stop offset="0" stop-color="#68a1d6"></stop><stop offset="1" stop-color="#3179af"></stop></linearGradient><rect width="55" height="55" x="329" y="290" fill="url(#k)" fill-rule="evenodd" clip-rule="evenodd"></rect><linearGradient id="l" x1="128" x2="183" y1="391" y2="446" gradientUnits="userSpaceOnUse"><stop offset="0" stop-color="#d7f0ff"></stop><stop offset="1" stop-color="#9ad2fc"></stop></linearGradient><rect width="55" height="55" x="128" y="391" fill="url(#l)" fill-rule="evenodd" clip-rule="evenodd"></rect><linearGradient id="m" x1="228.5" x2="283.5" y1="391" y2="446" gradientUnits="userSpaceOnUse"><stop offset="0" stop-color="#d7f0ff"></stop><stop offset="1" stop-color="#9ad2fc"></stop></linearGradient><rect width="55" height="55" x="228.5" y="391" fill="url(#m)" fill-rule="evenodd" clip-rule="evenodd"></rect><linearGradient id="n" x1="305.686" x2="368.853" y1="380.667" y2="443.833" gradientUnits="userSpaceOnUse"><stop offset="0" stop-color="#ebeadf"></stop><stop offset="1" stop-color="#c4c1ab"></stop></linearGradient><polygon fill="url(#n)" fill-rule="evenodd" points="305.7 507 432 380.7 305.7 380.7" clip-rule="evenodd"></polygon></svg>
